# xmcd
#
# Track frame offsets:
#  150
#  17579
#  34869
#  50348
#  63318
#  76544
#  91841
#  109654
#  126175
#  141319
#  160104
#  180411
#  197671
#  208846
#  221786
#  239295
#  255917
#  271632
#  284788
#  299641
#  322427
#
# Disc length: 4567 seconds
#
# Revision: 0
# Processed by: cddbd v1.5.1PL0 Copyright (c) Steve Scherf et al.
# Submitted via: Collectorz.com Music Collector 6.9
#
DISCID=3711d515
DTITLE=Various Artist - Honky Tonk 6
DYEAR=1900
DGENRE=
TTITLE0=Ben Tomandl - Crazy Times
TTITLE1=Ben Tomandl - Witness
TTITLE2=Jared Woods - Tonight
TTITLE3=Jared Woods - Wasted Yesterdays
TTITLE4=Jared Woods - You Don't Need
TTITLE5=John Cox - As I Am
TTITLE6=John Cox - Best Stuph
TTITLE7=John Cox - Odaat
TTITLE8=Juan Gutierrez - For in My Mind
TTITLE9=Juan Gutierrez - Girl of My Dreams #1
TTITLE10=Juan Gutierrez - Perfect Place
TTITLE11=Juan Gutierrez - The Graduation Song
TTITLE12=Strangecloud - These Old Bones
TTITLE13=Syd - Don't Stop
TTITLE14=Syd - Forever
TTITLE15=Syd - Let Go
TTITLE16=Tom McDonald - The Move Out Song
TTITLE17=Tom McDonald - To Take You Home
TTITLE18=Stormy Mondays - Soul Ballad #3
TTITLE19=Stormy Mondays - Tomorrow's the Day
TTITLE20=Billy Pilgrim - Hard Rain
EXTD=
EXTT0=
EXTT1=
EXTT2=
EXTT3=
EXTT4=
EXTT5=
EXTT6=
EXTT7=
EXTT8=
EXTT9=
EXTT10=
EXTT11=
EXTT12=
EXTT13=
EXTT14=
EXTT15=
EXTT16=
EXTT17=
EXTT18=
EXTT19=
EXTT20=
PLAYORDER=
